%TF.GenerationSoftware,KiCad,Pcbnew,(6.0.8)*%
%TF.CreationDate,2022-11-07T13:32:54+08:00*%
%TF.ProjectId,remote,72656d6f-7465-42e6-9b69-6361645f7063,rev?*%
%TF.SameCoordinates,Original*%
%TF.FileFunction,Soldermask,Top*%
%TF.FilePolarity,Negative*%
%FSLAX46Y46*%
G04 Gerber Fmt 4.6, Leading zero omitted, Abs format (unit mm)*
G04 Created by KiCad (PCBNEW (6.0.8)) date 2022-11-07 13:32:54*
%MOMM*%
%LPD*%
G01*
G04 APERTURE LIST*
G04 Aperture macros list*
%AMRoundRect*
0 Rectangle with rounded corners*
0 $1 Rounding radius*
0 $2 $3 $4 $5 $6 $7 $8 $9 X,Y pos of 4 corners*
0 Add a 4 corners polygon primitive as box body*
4,1,4,$2,$3,$4,$5,$6,$7,$8,$9,$2,$3,0*
0 Add four circle primitives for the rounded corners*
1,1,$1+$1,$2,$3*
1,1,$1+$1,$4,$5*
1,1,$1+$1,$6,$7*
1,1,$1+$1,$8,$9*
0 Add four rect primitives between the rounded corners*
20,1,$1+$1,$2,$3,$4,$5,0*
20,1,$1+$1,$4,$5,$6,$7,0*
20,1,$1+$1,$6,$7,$8,$9,0*
20,1,$1+$1,$8,$9,$2,$3,0*%
G04 Aperture macros list end*
%ADD10R,0.900000X1.200000*%
%ADD11RoundRect,0.250000X0.262500X0.450000X-0.262500X0.450000X-0.262500X-0.450000X0.262500X-0.450000X0*%
%ADD12R,1.000000X2.750000*%
%ADD13R,5.100000X5.100000*%
%ADD14C,17.800000*%
%ADD15C,4.600000*%
%ADD16RoundRect,0.250000X-0.475000X0.250000X-0.475000X-0.250000X0.475000X-0.250000X0.475000X0.250000X0*%
%ADD17R,0.800000X0.500000*%
%ADD18R,0.800000X0.400000*%
%ADD19RoundRect,0.250000X-0.262500X-0.450000X0.262500X-0.450000X0.262500X0.450000X-0.262500X0.450000X0*%
%ADD20R,1.700000X1.700000*%
%ADD21O,1.700000X1.700000*%
%ADD22R,0.650000X1.700000*%
%ADD23RoundRect,0.243750X-0.243750X-0.456250X0.243750X-0.456250X0.243750X0.456250X-0.243750X0.456250X0*%
G04 APERTURE END LIST*
D10*
%TO.C,D2*%
X15495000Y-17907000D03*
X18795000Y-17907000D03*
%TD*%
D11*
%TO.C,R1*%
X19915500Y-20955000D03*
X21740500Y-20955000D03*
%TD*%
%TO.C,R4*%
X18796000Y-12954000D03*
X16971000Y-12954000D03*
%TD*%
D10*
%TO.C,D5*%
X9905000Y-22860000D03*
X6605000Y-22860000D03*
%TD*%
D12*
%TO.C,SW1*%
X25495000Y-11090000D03*
X25495000Y-16850000D03*
X21495000Y-16850000D03*
X21495000Y-11090000D03*
%TD*%
D13*
%TO.C,BT1*%
X28675000Y-44450000D03*
X3075000Y-44450000D03*
D14*
X15875000Y-44450000D03*
%TD*%
D15*
%TO.C,H3*%
X2540000Y-53340000D03*
%TD*%
D16*
%TO.C,C1*%
X12446000Y-19944000D03*
X12446000Y-21844000D03*
%TD*%
D15*
%TO.C,H1*%
X2540000Y-2540000D03*
%TD*%
D12*
%TO.C,SW2*%
X10255000Y-32090000D03*
X10255000Y-26330000D03*
X6255000Y-26330000D03*
X6255000Y-32090000D03*
%TD*%
D17*
%TO.C,RN1*%
X22490000Y-27362000D03*
D18*
X22490000Y-26562000D03*
X22490000Y-25762000D03*
D17*
X22490000Y-24962000D03*
X20690000Y-24962000D03*
D18*
X20690000Y-25762000D03*
X20690000Y-26562000D03*
D17*
X20690000Y-27362000D03*
%TD*%
D10*
%TO.C,D3*%
X9905000Y-20320000D03*
X6605000Y-20320000D03*
%TD*%
D15*
%TO.C,H4*%
X29210000Y-53340000D03*
%TD*%
D19*
%TO.C,R3\u002A*%
X22582500Y-29845000D03*
X24407500Y-29845000D03*
%TD*%
D12*
%TO.C,SW0*%
X10255000Y-11090000D03*
X10255000Y-16850000D03*
X6255000Y-16850000D03*
X6255000Y-11090000D03*
%TD*%
D20*
%TO.C,J1*%
X26030000Y-20970000D03*
D21*
X28570000Y-20970000D03*
X26030000Y-23510000D03*
X28570000Y-23510000D03*
X26030000Y-26050000D03*
X28570000Y-26050000D03*
%TD*%
D22*
%TO.C,U1*%
X13970000Y-31590000D03*
X15240000Y-31590000D03*
X16510000Y-31590000D03*
X17780000Y-31590000D03*
X17780000Y-24290000D03*
X16510000Y-24290000D03*
X15240000Y-24290000D03*
X13970000Y-24290000D03*
%TD*%
D10*
%TO.C,D4*%
X15495000Y-15367000D03*
X18795000Y-15367000D03*
%TD*%
D23*
%TO.C,D1*%
X21922500Y-4445000D03*
X23797500Y-4445000D03*
%TD*%
D19*
%TO.C,R2*%
X22582500Y-32385000D03*
X24407500Y-32385000D03*
%TD*%
D15*
%TO.C,H2*%
X29210000Y-2540000D03*
%TD*%
M02*
