%TF.GenerationSoftware,KiCad,Pcbnew,(6.0.8)*%
%TF.CreationDate,2022-11-07T13:32:54+08:00*%
%TF.ProjectId,remote,72656d6f-7465-42e6-9b69-6361645f7063,rev?*%
%TF.SameCoordinates,Original*%
%TF.FileFunction,Legend,Top*%
%TF.FilePolarity,Positive*%
%FSLAX46Y46*%
G04 Gerber Fmt 4.6, Leading zero omitted, Abs format (unit mm)*
G04 Created by KiCad (PCBNEW (6.0.8)) date 2022-11-07 13:32:54*
%MOMM*%
%LPD*%
G01*
G04 APERTURE LIST*
%ADD10C,0.150000*%
%ADD11C,0.120000*%
%ADD12C,0.700000*%
G04 APERTURE END LIST*
D10*
X25828809Y-29027380D02*
X25828809Y-28027380D01*
X26876428Y-28932142D02*
X26828809Y-28979761D01*
X26685952Y-29027380D01*
X26590714Y-29027380D01*
X26447857Y-28979761D01*
X26352619Y-28884523D01*
X26305000Y-28789285D01*
X26257380Y-28598809D01*
X26257380Y-28455952D01*
X26305000Y-28265476D01*
X26352619Y-28170238D01*
X26447857Y-28075000D01*
X26590714Y-28027380D01*
X26685952Y-28027380D01*
X26828809Y-28075000D01*
X26876428Y-28122619D01*
X27257380Y-28979761D02*
X27400238Y-29027380D01*
X27638333Y-29027380D01*
X27733571Y-28979761D01*
X27781190Y-28932142D01*
X27828809Y-28836904D01*
X27828809Y-28741666D01*
X27781190Y-28646428D01*
X27733571Y-28598809D01*
X27638333Y-28551190D01*
X27447857Y-28503571D01*
X27352619Y-28455952D01*
X27305000Y-28408333D01*
X27257380Y-28313095D01*
X27257380Y-28217857D01*
X27305000Y-28122619D01*
X27352619Y-28075000D01*
X27447857Y-28027380D01*
X27685952Y-28027380D01*
X27828809Y-28075000D01*
X28257380Y-29027380D02*
X28257380Y-28027380D01*
X28638333Y-28027380D01*
X28733571Y-28075000D01*
X28781190Y-28122619D01*
X28828809Y-28217857D01*
X28828809Y-28360714D01*
X28781190Y-28455952D01*
X28733571Y-28503571D01*
X28638333Y-28551190D01*
X28257380Y-28551190D01*
X13779761Y-54713142D02*
X13732142Y-54760761D01*
X13589285Y-54808380D01*
X13494047Y-54808380D01*
X13351190Y-54760761D01*
X13255952Y-54665523D01*
X13208333Y-54570285D01*
X13160714Y-54379809D01*
X13160714Y-54236952D01*
X13208333Y-54046476D01*
X13255952Y-53951238D01*
X13351190Y-53856000D01*
X13494047Y-53808380D01*
X13589285Y-53808380D01*
X13732142Y-53856000D01*
X13779761Y-53903619D01*
X14779761Y-54808380D02*
X14446428Y-54332190D01*
X14208333Y-54808380D02*
X14208333Y-53808380D01*
X14589285Y-53808380D01*
X14684523Y-53856000D01*
X14732142Y-53903619D01*
X14779761Y-53998857D01*
X14779761Y-54141714D01*
X14732142Y-54236952D01*
X14684523Y-54284571D01*
X14589285Y-54332190D01*
X14208333Y-54332190D01*
X15160714Y-53903619D02*
X15208333Y-53856000D01*
X15303571Y-53808380D01*
X15541666Y-53808380D01*
X15636904Y-53856000D01*
X15684523Y-53903619D01*
X15732142Y-53998857D01*
X15732142Y-54094095D01*
X15684523Y-54236952D01*
X15113095Y-54808380D01*
X15732142Y-54808380D01*
X16351190Y-53808380D02*
X16446428Y-53808380D01*
X16541666Y-53856000D01*
X16589285Y-53903619D01*
X16636904Y-53998857D01*
X16684523Y-54189333D01*
X16684523Y-54427428D01*
X16636904Y-54617904D01*
X16589285Y-54713142D01*
X16541666Y-54760761D01*
X16446428Y-54808380D01*
X16351190Y-54808380D01*
X16255952Y-54760761D01*
X16208333Y-54713142D01*
X16160714Y-54617904D01*
X16113095Y-54427428D01*
X16113095Y-54189333D01*
X16160714Y-53998857D01*
X16208333Y-53903619D01*
X16255952Y-53856000D01*
X16351190Y-53808380D01*
X17017857Y-53808380D02*
X17636904Y-53808380D01*
X17303571Y-54189333D01*
X17446428Y-54189333D01*
X17541666Y-54236952D01*
X17589285Y-54284571D01*
X17636904Y-54379809D01*
X17636904Y-54617904D01*
X17589285Y-54713142D01*
X17541666Y-54760761D01*
X17446428Y-54808380D01*
X17160714Y-54808380D01*
X17065476Y-54760761D01*
X17017857Y-54713142D01*
X18017857Y-53903619D02*
X18065476Y-53856000D01*
X18160714Y-53808380D01*
X18398809Y-53808380D01*
X18494047Y-53856000D01*
X18541666Y-53903619D01*
X18589285Y-53998857D01*
X18589285Y-54094095D01*
X18541666Y-54236952D01*
X17970238Y-54808380D01*
X18589285Y-54808380D01*
D11*
X985190Y-7963892D02*
X954238Y-7994845D01*
X861380Y-8025797D01*
X799476Y-8025797D01*
X706619Y-7994845D01*
X644714Y-7932940D01*
X613761Y-7871035D01*
X582809Y-7747226D01*
X582809Y-7654369D01*
X613761Y-7530559D01*
X644714Y-7468654D01*
X706619Y-7406750D01*
X799476Y-7375797D01*
X861380Y-7375797D01*
X954238Y-7406750D01*
X985190Y-7437702D01*
X1263761Y-8025797D02*
X1263761Y-7592464D01*
X1263761Y-7375797D02*
X1232809Y-7406750D01*
X1263761Y-7437702D01*
X1294714Y-7406750D01*
X1263761Y-7375797D01*
X1263761Y-7437702D01*
X1480428Y-7592464D02*
X1728047Y-7592464D01*
X1573285Y-7375797D02*
X1573285Y-7932940D01*
X1604238Y-7994845D01*
X1666142Y-8025797D01*
X1728047Y-8025797D01*
X1882809Y-7592464D02*
X2037571Y-8025797D01*
X2192333Y-7592464D02*
X2037571Y-8025797D01*
X1975666Y-8180559D01*
X1944714Y-8211511D01*
X1882809Y-8242464D01*
X2904238Y-7994845D02*
X2997095Y-8025797D01*
X3151857Y-8025797D01*
X3213761Y-7994845D01*
X3244714Y-7963892D01*
X3275666Y-7901988D01*
X3275666Y-7840083D01*
X3244714Y-7778178D01*
X3213761Y-7747226D01*
X3151857Y-7716273D01*
X3028047Y-7685321D01*
X2966142Y-7654369D01*
X2935190Y-7623416D01*
X2904238Y-7561511D01*
X2904238Y-7499607D01*
X2935190Y-7437702D01*
X2966142Y-7406750D01*
X3028047Y-7375797D01*
X3182809Y-7375797D01*
X3275666Y-7406750D01*
X3832809Y-7994845D02*
X3770904Y-8025797D01*
X3647095Y-8025797D01*
X3585190Y-7994845D01*
X3554238Y-7963892D01*
X3523285Y-7901988D01*
X3523285Y-7716273D01*
X3554238Y-7654369D01*
X3585190Y-7623416D01*
X3647095Y-7592464D01*
X3770904Y-7592464D01*
X3832809Y-7623416D01*
X4111380Y-8025797D02*
X4111380Y-7592464D01*
X4111380Y-7375797D02*
X4080428Y-7406750D01*
X4111380Y-7437702D01*
X4142333Y-7406750D01*
X4111380Y-7375797D01*
X4111380Y-7437702D01*
X4668523Y-7994845D02*
X4606619Y-8025797D01*
X4482809Y-8025797D01*
X4420904Y-7994845D01*
X4389952Y-7932940D01*
X4389952Y-7685321D01*
X4420904Y-7623416D01*
X4482809Y-7592464D01*
X4606619Y-7592464D01*
X4668523Y-7623416D01*
X4699476Y-7685321D01*
X4699476Y-7747226D01*
X4389952Y-7809130D01*
X4978047Y-7592464D02*
X4978047Y-8025797D01*
X4978047Y-7654369D02*
X5009000Y-7623416D01*
X5070904Y-7592464D01*
X5163761Y-7592464D01*
X5225666Y-7623416D01*
X5256619Y-7685321D01*
X5256619Y-8025797D01*
X5844714Y-7994845D02*
X5782809Y-8025797D01*
X5659000Y-8025797D01*
X5597095Y-7994845D01*
X5566142Y-7963892D01*
X5535190Y-7901988D01*
X5535190Y-7716273D01*
X5566142Y-7654369D01*
X5597095Y-7623416D01*
X5659000Y-7592464D01*
X5782809Y-7592464D01*
X5844714Y-7623416D01*
X6370904Y-7994845D02*
X6309000Y-8025797D01*
X6185190Y-8025797D01*
X6123285Y-7994845D01*
X6092333Y-7932940D01*
X6092333Y-7685321D01*
X6123285Y-7623416D01*
X6185190Y-7592464D01*
X6309000Y-7592464D01*
X6370904Y-7623416D01*
X6401857Y-7685321D01*
X6401857Y-7747226D01*
X6092333Y-7809130D01*
X7485190Y-8025797D02*
X7175666Y-8025797D01*
X7175666Y-7375797D01*
X7980428Y-8025797D02*
X7980428Y-7685321D01*
X7949476Y-7623416D01*
X7887571Y-7592464D01*
X7763761Y-7592464D01*
X7701857Y-7623416D01*
X7980428Y-7994845D02*
X7918523Y-8025797D01*
X7763761Y-8025797D01*
X7701857Y-7994845D01*
X7670904Y-7932940D01*
X7670904Y-7871035D01*
X7701857Y-7809130D01*
X7763761Y-7778178D01*
X7918523Y-7778178D01*
X7980428Y-7747226D01*
X8289952Y-8025797D02*
X8289952Y-7375797D01*
X8289952Y-7623416D02*
X8351857Y-7592464D01*
X8475666Y-7592464D01*
X8537571Y-7623416D01*
X8568523Y-7654369D01*
X8599476Y-7716273D01*
X8599476Y-7901988D01*
X8568523Y-7963892D01*
X8537571Y-7994845D01*
X8475666Y-8025797D01*
X8351857Y-8025797D01*
X8289952Y-7994845D01*
X9775666Y-7716273D02*
X9744714Y-7685321D01*
X9682809Y-7654369D01*
X9620904Y-7654369D01*
X9559000Y-7685321D01*
X9528047Y-7716273D01*
X9497095Y-7778178D01*
X9497095Y-7840083D01*
X9528047Y-7901988D01*
X9559000Y-7932940D01*
X9620904Y-7963892D01*
X9682809Y-7963892D01*
X9744714Y-7932940D01*
X9775666Y-7901988D01*
X9775666Y-7654369D02*
X9775666Y-7901988D01*
X9806619Y-7932940D01*
X9837571Y-7932940D01*
X9899476Y-7901988D01*
X9930428Y-7840083D01*
X9930428Y-7685321D01*
X9868523Y-7592464D01*
X9775666Y-7530559D01*
X9651857Y-7499607D01*
X9528047Y-7530559D01*
X9435190Y-7592464D01*
X9373285Y-7685321D01*
X9342333Y-7809130D01*
X9373285Y-7932940D01*
X9435190Y-8025797D01*
X9528047Y-8087702D01*
X9651857Y-8118654D01*
X9775666Y-8087702D01*
X9868523Y-8025797D01*
X10611380Y-7375797D02*
X10982809Y-7375797D01*
X10797095Y-8025797D02*
X10797095Y-7375797D01*
X11478047Y-8025797D02*
X11478047Y-7685321D01*
X11447095Y-7623416D01*
X11385190Y-7592464D01*
X11261380Y-7592464D01*
X11199476Y-7623416D01*
X11478047Y-7994845D02*
X11416142Y-8025797D01*
X11261380Y-8025797D01*
X11199476Y-7994845D01*
X11168523Y-7932940D01*
X11168523Y-7871035D01*
X11199476Y-7809130D01*
X11261380Y-7778178D01*
X11416142Y-7778178D01*
X11478047Y-7747226D01*
X11787571Y-8025797D02*
X11787571Y-7592464D01*
X11787571Y-7375797D02*
X11756619Y-7406750D01*
X11787571Y-7437702D01*
X11818523Y-7406750D01*
X11787571Y-7375797D01*
X11787571Y-7437702D01*
X12097095Y-7592464D02*
X12097095Y-8242464D01*
X12097095Y-7623416D02*
X12159000Y-7592464D01*
X12282809Y-7592464D01*
X12344714Y-7623416D01*
X12375666Y-7654369D01*
X12406619Y-7716273D01*
X12406619Y-7901988D01*
X12375666Y-7963892D01*
X12344714Y-7994845D01*
X12282809Y-8025797D01*
X12159000Y-8025797D01*
X12097095Y-7994845D01*
X12932809Y-7994845D02*
X12870904Y-8025797D01*
X12747095Y-8025797D01*
X12685190Y-7994845D01*
X12654238Y-7932940D01*
X12654238Y-7685321D01*
X12685190Y-7623416D01*
X12747095Y-7592464D01*
X12870904Y-7592464D01*
X12932809Y-7623416D01*
X12963761Y-7685321D01*
X12963761Y-7747226D01*
X12654238Y-7809130D01*
X13242333Y-8025797D02*
X13242333Y-7592464D01*
X13242333Y-7375797D02*
X13211380Y-7406750D01*
X13242333Y-7437702D01*
X13273285Y-7406750D01*
X13242333Y-7375797D01*
X13242333Y-7437702D01*
X13954238Y-7375797D02*
X14325666Y-7375797D01*
X14139952Y-8025797D02*
X14139952Y-7375797D01*
X14789952Y-7994845D02*
X14728047Y-8025797D01*
X14604238Y-8025797D01*
X14542333Y-7994845D01*
X14511380Y-7932940D01*
X14511380Y-7685321D01*
X14542333Y-7623416D01*
X14604238Y-7592464D01*
X14728047Y-7592464D01*
X14789952Y-7623416D01*
X14820904Y-7685321D01*
X14820904Y-7747226D01*
X14511380Y-7809130D01*
X15378047Y-7994845D02*
X15316142Y-8025797D01*
X15192333Y-8025797D01*
X15130428Y-7994845D01*
X15099476Y-7963892D01*
X15068523Y-7901988D01*
X15068523Y-7716273D01*
X15099476Y-7654369D01*
X15130428Y-7623416D01*
X15192333Y-7592464D01*
X15316142Y-7592464D01*
X15378047Y-7623416D01*
X15656619Y-8025797D02*
X15656619Y-7375797D01*
X15935190Y-8025797D02*
X15935190Y-7685321D01*
X15904238Y-7623416D01*
X15842333Y-7592464D01*
X15749476Y-7592464D01*
X15687571Y-7623416D01*
X15656619Y-7654369D01*
X613761Y-9072297D02*
X613761Y-8422297D01*
X768523Y-8422297D01*
X861380Y-8453250D01*
X923285Y-8515154D01*
X954238Y-8577059D01*
X985190Y-8700869D01*
X985190Y-8793726D01*
X954238Y-8917535D01*
X923285Y-8979440D01*
X861380Y-9041345D01*
X768523Y-9072297D01*
X613761Y-9072297D01*
X1232809Y-8886583D02*
X1542333Y-8886583D01*
X1170904Y-9072297D02*
X1387571Y-8422297D01*
X1604238Y-9072297D01*
X1820904Y-9072297D02*
X1820904Y-8422297D01*
X2192333Y-9072297D01*
X2192333Y-8422297D01*
X2873285Y-9010392D02*
X2842333Y-9041345D01*
X2749476Y-9072297D01*
X2687571Y-9072297D01*
X2594714Y-9041345D01*
X2532809Y-8979440D01*
X2501857Y-8917535D01*
X2470904Y-8793726D01*
X2470904Y-8700869D01*
X2501857Y-8577059D01*
X2532809Y-8515154D01*
X2594714Y-8453250D01*
X2687571Y-8422297D01*
X2749476Y-8422297D01*
X2842333Y-8453250D01*
X2873285Y-8484202D01*
X3151857Y-9072297D02*
X3151857Y-8422297D01*
X3151857Y-8731821D02*
X3523285Y-8731821D01*
X3523285Y-9072297D02*
X3523285Y-8422297D01*
X3956619Y-8422297D02*
X4080428Y-8422297D01*
X4142333Y-8453250D01*
X4204238Y-8515154D01*
X4235190Y-8638964D01*
X4235190Y-8855630D01*
X4204238Y-8979440D01*
X4142333Y-9041345D01*
X4080428Y-9072297D01*
X3956619Y-9072297D01*
X3894714Y-9041345D01*
X3832809Y-8979440D01*
X3801857Y-8855630D01*
X3801857Y-8638964D01*
X3832809Y-8515154D01*
X3894714Y-8453250D01*
X3956619Y-8422297D01*
X4513761Y-8422297D02*
X4513761Y-8948488D01*
X4544714Y-9010392D01*
X4575666Y-9041345D01*
X4637571Y-9072297D01*
X4761380Y-9072297D01*
X4823285Y-9041345D01*
X4854238Y-9010392D01*
X4885190Y-8948488D01*
X4885190Y-8422297D01*
X5132809Y-8422297D02*
X5566142Y-8422297D01*
X5132809Y-9072297D01*
X5566142Y-9072297D01*
X5813761Y-9072297D02*
X5813761Y-8422297D01*
X5813761Y-8731821D02*
X6185190Y-8731821D01*
X6185190Y-9072297D02*
X6185190Y-8422297D01*
X6618523Y-8422297D02*
X6742333Y-8422297D01*
X6804238Y-8453250D01*
X6866142Y-8515154D01*
X6897095Y-8638964D01*
X6897095Y-8855630D01*
X6866142Y-8979440D01*
X6804238Y-9041345D01*
X6742333Y-9072297D01*
X6618523Y-9072297D01*
X6556619Y-9041345D01*
X6494714Y-8979440D01*
X6463761Y-8855630D01*
X6463761Y-8638964D01*
X6494714Y-8515154D01*
X6556619Y-8453250D01*
X6618523Y-8422297D01*
X7175666Y-8422297D02*
X7175666Y-8948488D01*
X7206619Y-9010392D01*
X7237571Y-9041345D01*
X7299476Y-9072297D01*
X7423285Y-9072297D01*
X7485190Y-9041345D01*
X7516142Y-9010392D01*
X7547095Y-8948488D01*
X7547095Y-8422297D01*
X8320904Y-8484202D02*
X8351857Y-8453250D01*
X8413761Y-8422297D01*
X8568523Y-8422297D01*
X8630428Y-8453250D01*
X8661380Y-8484202D01*
X8692333Y-8546107D01*
X8692333Y-8608011D01*
X8661380Y-8700869D01*
X8289952Y-9072297D01*
X8692333Y-9072297D01*
X9094714Y-8422297D02*
X9156619Y-8422297D01*
X9218523Y-8453250D01*
X9249476Y-8484202D01*
X9280428Y-8546107D01*
X9311380Y-8669916D01*
X9311380Y-8824678D01*
X9280428Y-8948488D01*
X9249476Y-9010392D01*
X9218523Y-9041345D01*
X9156619Y-9072297D01*
X9094714Y-9072297D01*
X9032809Y-9041345D01*
X9001857Y-9010392D01*
X8970904Y-8948488D01*
X8939952Y-8824678D01*
X8939952Y-8669916D01*
X8970904Y-8546107D01*
X9001857Y-8484202D01*
X9032809Y-8453250D01*
X9094714Y-8422297D01*
X9558999Y-8484202D02*
X9589952Y-8453250D01*
X9651857Y-8422297D01*
X9806619Y-8422297D01*
X9868523Y-8453250D01*
X9899476Y-8484202D01*
X9930428Y-8546107D01*
X9930428Y-8608011D01*
X9899476Y-8700869D01*
X9528047Y-9072297D01*
X9930428Y-9072297D01*
X10178047Y-8484202D02*
X10208999Y-8453250D01*
X10270904Y-8422297D01*
X10425666Y-8422297D01*
X10487571Y-8453250D01*
X10518523Y-8484202D01*
X10549476Y-8546107D01*
X10549476Y-8608011D01*
X10518523Y-8700869D01*
X10147095Y-9072297D01*
X10549476Y-9072297D01*
X10828047Y-8824678D02*
X11323285Y-8824678D01*
X11973285Y-9072297D02*
X11601857Y-9072297D01*
X11787571Y-9072297D02*
X11787571Y-8422297D01*
X11725666Y-8515154D01*
X11663761Y-8577059D01*
X11601857Y-8608011D01*
X12592333Y-9072297D02*
X12220904Y-9072297D01*
X12406619Y-9072297D02*
X12406619Y-8422297D01*
X12344714Y-8515154D01*
X12282809Y-8577059D01*
X12220904Y-8608011D01*
X12870904Y-8824678D02*
X13366142Y-8824678D01*
X13799476Y-8422297D02*
X13861380Y-8422297D01*
X13923285Y-8453250D01*
X13954238Y-8484202D01*
X13985190Y-8546107D01*
X14016142Y-8669916D01*
X14016142Y-8824678D01*
X13985190Y-8948488D01*
X13954238Y-9010392D01*
X13923285Y-9041345D01*
X13861380Y-9072297D01*
X13799476Y-9072297D01*
X13737571Y-9041345D01*
X13706619Y-9010392D01*
X13675666Y-8948488D01*
X13644714Y-8824678D01*
X13644714Y-8669916D01*
X13675666Y-8546107D01*
X13706619Y-8484202D01*
X13737571Y-8453250D01*
X13799476Y-8422297D01*
X14232809Y-8422297D02*
X14666142Y-8422297D01*
X14387571Y-9072297D01*
D10*
%TO.C,D2*%
X12596904Y-18359380D02*
X12596904Y-17359380D01*
X12835000Y-17359380D01*
X12977857Y-17407000D01*
X13073095Y-17502238D01*
X13120714Y-17597476D01*
X13168333Y-17787952D01*
X13168333Y-17930809D01*
X13120714Y-18121285D01*
X13073095Y-18216523D01*
X12977857Y-18311761D01*
X12835000Y-18359380D01*
X12596904Y-18359380D01*
X13549285Y-17454619D02*
X13596904Y-17407000D01*
X13692142Y-17359380D01*
X13930238Y-17359380D01*
X14025476Y-17407000D01*
X14073095Y-17454619D01*
X14120714Y-17549857D01*
X14120714Y-17645095D01*
X14073095Y-17787952D01*
X13501666Y-18359380D01*
X14120714Y-18359380D01*
%TO.C,R1*%
X20661333Y-19756380D02*
X20328000Y-19280190D01*
X20089904Y-19756380D02*
X20089904Y-18756380D01*
X20470857Y-18756380D01*
X20566095Y-18804000D01*
X20613714Y-18851619D01*
X20661333Y-18946857D01*
X20661333Y-19089714D01*
X20613714Y-19184952D01*
X20566095Y-19232571D01*
X20470857Y-19280190D01*
X20089904Y-19280190D01*
X21613714Y-19756380D02*
X21042285Y-19756380D01*
X21328000Y-19756380D02*
X21328000Y-18756380D01*
X21232761Y-18899238D01*
X21137523Y-18994476D01*
X21042285Y-19042095D01*
%TO.C,R4*%
X15016833Y-13406380D02*
X14683500Y-12930190D01*
X14445404Y-13406380D02*
X14445404Y-12406380D01*
X14826357Y-12406380D01*
X14921595Y-12454000D01*
X14969214Y-12501619D01*
X15016833Y-12596857D01*
X15016833Y-12739714D01*
X14969214Y-12834952D01*
X14921595Y-12882571D01*
X14826357Y-12930190D01*
X14445404Y-12930190D01*
X15873976Y-12739714D02*
X15873976Y-13406380D01*
X15635880Y-12358761D02*
X15397785Y-13073047D01*
X16016833Y-13073047D01*
%TO.C,D5*%
X3706904Y-23312380D02*
X3706904Y-22312380D01*
X3945000Y-22312380D01*
X4087857Y-22360000D01*
X4183095Y-22455238D01*
X4230714Y-22550476D01*
X4278333Y-22740952D01*
X4278333Y-22883809D01*
X4230714Y-23074285D01*
X4183095Y-23169523D01*
X4087857Y-23264761D01*
X3945000Y-23312380D01*
X3706904Y-23312380D01*
X5183095Y-22312380D02*
X4706904Y-22312380D01*
X4659285Y-22788571D01*
X4706904Y-22740952D01*
X4802142Y-22693333D01*
X5040238Y-22693333D01*
X5135476Y-22740952D01*
X5183095Y-22788571D01*
X5230714Y-22883809D01*
X5230714Y-23121904D01*
X5183095Y-23217142D01*
X5135476Y-23264761D01*
X5040238Y-23312380D01*
X4802142Y-23312380D01*
X4706904Y-23264761D01*
X4659285Y-23217142D01*
%TO.C,SW1*%
X27799761Y-15303333D02*
X27847380Y-15160476D01*
X27847380Y-14922380D01*
X27799761Y-14827142D01*
X27752142Y-14779523D01*
X27656904Y-14731904D01*
X27561666Y-14731904D01*
X27466428Y-14779523D01*
X27418809Y-14827142D01*
X27371190Y-14922380D01*
X27323571Y-15112857D01*
X27275952Y-15208095D01*
X27228333Y-15255714D01*
X27133095Y-15303333D01*
X27037857Y-15303333D01*
X26942619Y-15255714D01*
X26895000Y-15208095D01*
X26847380Y-15112857D01*
X26847380Y-14874761D01*
X26895000Y-14731904D01*
X26847380Y-14398571D02*
X27847380Y-14160476D01*
X27133095Y-13970000D01*
X27847380Y-13779523D01*
X26847380Y-13541428D01*
X27847380Y-12636666D02*
X27847380Y-13208095D01*
X27847380Y-12922380D02*
X26847380Y-12922380D01*
X26990238Y-13017619D01*
X27085476Y-13112857D01*
X27133095Y-13208095D01*
%TO.C,BT1*%
X5939285Y-54078571D02*
X6082142Y-54126190D01*
X6129761Y-54173809D01*
X6177380Y-54269047D01*
X6177380Y-54411904D01*
X6129761Y-54507142D01*
X6082142Y-54554761D01*
X5986904Y-54602380D01*
X5605952Y-54602380D01*
X5605952Y-53602380D01*
X5939285Y-53602380D01*
X6034523Y-53650000D01*
X6082142Y-53697619D01*
X6129761Y-53792857D01*
X6129761Y-53888095D01*
X6082142Y-53983333D01*
X6034523Y-54030952D01*
X5939285Y-54078571D01*
X5605952Y-54078571D01*
X6463095Y-53602380D02*
X7034523Y-53602380D01*
X6748809Y-54602380D02*
X6748809Y-53602380D01*
X7891666Y-54602380D02*
X7320238Y-54602380D01*
X7605952Y-54602380D02*
X7605952Y-53602380D01*
X7510714Y-53745238D01*
X7415476Y-53840476D01*
X7320238Y-53888095D01*
%TO.C,H3*%
X1778095Y-50617380D02*
X1778095Y-49617380D01*
X1778095Y-50093571D02*
X2349523Y-50093571D01*
X2349523Y-50617380D02*
X2349523Y-49617380D01*
X2730476Y-49617380D02*
X3349523Y-49617380D01*
X3016190Y-49998333D01*
X3159047Y-49998333D01*
X3254285Y-50045952D01*
X3301904Y-50093571D01*
X3349523Y-50188809D01*
X3349523Y-50426904D01*
X3301904Y-50522142D01*
X3254285Y-50569761D01*
X3159047Y-50617380D01*
X2873333Y-50617380D01*
X2778095Y-50569761D01*
X2730476Y-50522142D01*
%TO.C,C1*%
X14327142Y-21060666D02*
X14374761Y-21108285D01*
X14422380Y-21251142D01*
X14422380Y-21346380D01*
X14374761Y-21489238D01*
X14279523Y-21584476D01*
X14184285Y-21632095D01*
X13993809Y-21679714D01*
X13850952Y-21679714D01*
X13660476Y-21632095D01*
X13565238Y-21584476D01*
X13470000Y-21489238D01*
X13422380Y-21346380D01*
X13422380Y-21251142D01*
X13470000Y-21108285D01*
X13517619Y-21060666D01*
X14422380Y-20108285D02*
X14422380Y-20679714D01*
X14422380Y-20394000D02*
X13422380Y-20394000D01*
X13565238Y-20489238D01*
X13660476Y-20584476D01*
X13708095Y-20679714D01*
%TO.C,H1*%
X1778095Y-6167380D02*
X1778095Y-5167380D01*
X1778095Y-5643571D02*
X2349523Y-5643571D01*
X2349523Y-6167380D02*
X2349523Y-5167380D01*
X3349523Y-6167380D02*
X2778095Y-6167380D01*
X3063809Y-6167380D02*
X3063809Y-5167380D01*
X2968571Y-5310238D01*
X2873333Y-5405476D01*
X2778095Y-5453095D01*
%TO.C,SW2*%
X4722761Y-30543333D02*
X4770380Y-30400476D01*
X4770380Y-30162380D01*
X4722761Y-30067142D01*
X4675142Y-30019523D01*
X4579904Y-29971904D01*
X4484666Y-29971904D01*
X4389428Y-30019523D01*
X4341809Y-30067142D01*
X4294190Y-30162380D01*
X4246571Y-30352857D01*
X4198952Y-30448095D01*
X4151333Y-30495714D01*
X4056095Y-30543333D01*
X3960857Y-30543333D01*
X3865619Y-30495714D01*
X3818000Y-30448095D01*
X3770380Y-30352857D01*
X3770380Y-30114761D01*
X3818000Y-29971904D01*
X3770380Y-29638571D02*
X4770380Y-29400476D01*
X4056095Y-29210000D01*
X4770380Y-29019523D01*
X3770380Y-28781428D01*
X3865619Y-28448095D02*
X3818000Y-28400476D01*
X3770380Y-28305238D01*
X3770380Y-28067142D01*
X3818000Y-27971904D01*
X3865619Y-27924285D01*
X3960857Y-27876666D01*
X4056095Y-27876666D01*
X4198952Y-27924285D01*
X4770380Y-28495714D01*
X4770380Y-27876666D01*
%TO.C,RN1*%
X20899523Y-23947380D02*
X20566190Y-23471190D01*
X20328095Y-23947380D02*
X20328095Y-22947380D01*
X20709047Y-22947380D01*
X20804285Y-22995000D01*
X20851904Y-23042619D01*
X20899523Y-23137857D01*
X20899523Y-23280714D01*
X20851904Y-23375952D01*
X20804285Y-23423571D01*
X20709047Y-23471190D01*
X20328095Y-23471190D01*
X21328095Y-23947380D02*
X21328095Y-22947380D01*
X21899523Y-23947380D01*
X21899523Y-22947380D01*
X22899523Y-23947380D02*
X22328095Y-23947380D01*
X22613809Y-23947380D02*
X22613809Y-22947380D01*
X22518571Y-23090238D01*
X22423333Y-23185476D01*
X22328095Y-23233095D01*
%TO.C,D3*%
X3706904Y-20772380D02*
X3706904Y-19772380D01*
X3945000Y-19772380D01*
X4087857Y-19820000D01*
X4183095Y-19915238D01*
X4230714Y-20010476D01*
X4278333Y-20200952D01*
X4278333Y-20343809D01*
X4230714Y-20534285D01*
X4183095Y-20629523D01*
X4087857Y-20724761D01*
X3945000Y-20772380D01*
X3706904Y-20772380D01*
X4611666Y-19772380D02*
X5230714Y-19772380D01*
X4897380Y-20153333D01*
X5040238Y-20153333D01*
X5135476Y-20200952D01*
X5183095Y-20248571D01*
X5230714Y-20343809D01*
X5230714Y-20581904D01*
X5183095Y-20677142D01*
X5135476Y-20724761D01*
X5040238Y-20772380D01*
X4754523Y-20772380D01*
X4659285Y-20724761D01*
X4611666Y-20677142D01*
%TO.C,H4*%
X28448095Y-50617380D02*
X28448095Y-49617380D01*
X28448095Y-50093571D02*
X29019523Y-50093571D01*
X29019523Y-50617380D02*
X29019523Y-49617380D01*
X29924285Y-49950714D02*
X29924285Y-50617380D01*
X29686190Y-49569761D02*
X29448095Y-50284047D01*
X30067142Y-50284047D01*
%TO.C,R3\u002A*%
X19957023Y-30297380D02*
X19623690Y-29821190D01*
X19385595Y-30297380D02*
X19385595Y-29297380D01*
X19766547Y-29297380D01*
X19861785Y-29345000D01*
X19909404Y-29392619D01*
X19957023Y-29487857D01*
X19957023Y-29630714D01*
X19909404Y-29725952D01*
X19861785Y-29773571D01*
X19766547Y-29821190D01*
X19385595Y-29821190D01*
X20290357Y-29297380D02*
X20909404Y-29297380D01*
X20576071Y-29678333D01*
X20718928Y-29678333D01*
X20814166Y-29725952D01*
X20861785Y-29773571D01*
X20909404Y-29868809D01*
X20909404Y-30106904D01*
X20861785Y-30202142D01*
X20814166Y-30249761D01*
X20718928Y-30297380D01*
X20433214Y-30297380D01*
X20337976Y-30249761D01*
X20290357Y-30202142D01*
X21480833Y-29297380D02*
X21480833Y-29535476D01*
X21242738Y-29440238D02*
X21480833Y-29535476D01*
X21718928Y-29440238D01*
X21337976Y-29725952D02*
X21480833Y-29535476D01*
X21623690Y-29725952D01*
%TO.C,SW0*%
X4722761Y-15303333D02*
X4770380Y-15160476D01*
X4770380Y-14922380D01*
X4722761Y-14827142D01*
X4675142Y-14779523D01*
X4579904Y-14731904D01*
X4484666Y-14731904D01*
X4389428Y-14779523D01*
X4341809Y-14827142D01*
X4294190Y-14922380D01*
X4246571Y-15112857D01*
X4198952Y-15208095D01*
X4151333Y-15255714D01*
X4056095Y-15303333D01*
X3960857Y-15303333D01*
X3865619Y-15255714D01*
X3818000Y-15208095D01*
X3770380Y-15112857D01*
X3770380Y-14874761D01*
X3818000Y-14731904D01*
X3770380Y-14398571D02*
X4770380Y-14160476D01*
X4056095Y-13970000D01*
X4770380Y-13779523D01*
X3770380Y-13541428D01*
X3770380Y-12970000D02*
X3770380Y-12874761D01*
X3818000Y-12779523D01*
X3865619Y-12731904D01*
X3960857Y-12684285D01*
X4151333Y-12636666D01*
X4389428Y-12636666D01*
X4579904Y-12684285D01*
X4675142Y-12731904D01*
X4722761Y-12779523D01*
X4770380Y-12874761D01*
X4770380Y-12970000D01*
X4722761Y-13065238D01*
X4675142Y-13112857D01*
X4579904Y-13160476D01*
X4389428Y-13208095D01*
X4151333Y-13208095D01*
X3960857Y-13160476D01*
X3865619Y-13112857D01*
X3818000Y-13065238D01*
X3770380Y-12970000D01*
%TO.C,J1*%
X26966666Y-18092380D02*
X26966666Y-18806666D01*
X26919047Y-18949523D01*
X26823809Y-19044761D01*
X26680952Y-19092380D01*
X26585714Y-19092380D01*
X27966666Y-19092380D02*
X27395238Y-19092380D01*
X27680952Y-19092380D02*
X27680952Y-18092380D01*
X27585714Y-18235238D01*
X27490476Y-18330476D01*
X27395238Y-18378095D01*
%TO.C,U1*%
X11647380Y-28701904D02*
X12456904Y-28701904D01*
X12552142Y-28654285D01*
X12599761Y-28606666D01*
X12647380Y-28511428D01*
X12647380Y-28320952D01*
X12599761Y-28225714D01*
X12552142Y-28178095D01*
X12456904Y-28130476D01*
X11647380Y-28130476D01*
X12647380Y-27130476D02*
X12647380Y-27701904D01*
X12647380Y-27416190D02*
X11647380Y-27416190D01*
X11790238Y-27511428D01*
X11885476Y-27606666D01*
X11933095Y-27701904D01*
%TO.C,D4*%
X12596904Y-15819380D02*
X12596904Y-14819380D01*
X12835000Y-14819380D01*
X12977857Y-14867000D01*
X13073095Y-14962238D01*
X13120714Y-15057476D01*
X13168333Y-15247952D01*
X13168333Y-15390809D01*
X13120714Y-15581285D01*
X13073095Y-15676523D01*
X12977857Y-15771761D01*
X12835000Y-15819380D01*
X12596904Y-15819380D01*
X14025476Y-15152714D02*
X14025476Y-15819380D01*
X13787380Y-14771761D02*
X13549285Y-15486047D01*
X14168333Y-15486047D01*
%TO.C,D1*%
X22121904Y-3247380D02*
X22121904Y-2247380D01*
X22360000Y-2247380D01*
X22502857Y-2295000D01*
X22598095Y-2390238D01*
X22645714Y-2485476D01*
X22693333Y-2675952D01*
X22693333Y-2818809D01*
X22645714Y-3009285D01*
X22598095Y-3104523D01*
X22502857Y-3199761D01*
X22360000Y-3247380D01*
X22121904Y-3247380D01*
X23645714Y-3247380D02*
X23074285Y-3247380D01*
X23360000Y-3247380D02*
X23360000Y-2247380D01*
X23264761Y-2390238D01*
X23169523Y-2485476D01*
X23074285Y-2533095D01*
%TO.C,R2*%
X19957023Y-32837380D02*
X19623690Y-32361190D01*
X19385595Y-32837380D02*
X19385595Y-31837380D01*
X19766547Y-31837380D01*
X19861785Y-31885000D01*
X19909404Y-31932619D01*
X19957023Y-32027857D01*
X19957023Y-32170714D01*
X19909404Y-32265952D01*
X19861785Y-32313571D01*
X19766547Y-32361190D01*
X19385595Y-32361190D01*
X20337976Y-31932619D02*
X20385595Y-31885000D01*
X20480833Y-31837380D01*
X20718928Y-31837380D01*
X20814166Y-31885000D01*
X20861785Y-31932619D01*
X20909404Y-32027857D01*
X20909404Y-32123095D01*
X20861785Y-32265952D01*
X20290357Y-32837380D01*
X20909404Y-32837380D01*
%TO.C,H2*%
X28448095Y-6167380D02*
X28448095Y-5167380D01*
X28448095Y-5643571D02*
X29019523Y-5643571D01*
X29019523Y-6167380D02*
X29019523Y-5167380D01*
X29448095Y-5262619D02*
X29495714Y-5215000D01*
X29590952Y-5167380D01*
X29829047Y-5167380D01*
X29924285Y-5215000D01*
X29971904Y-5262619D01*
X30019523Y-5357857D01*
X30019523Y-5453095D01*
X29971904Y-5595952D01*
X29400476Y-6167380D01*
X30019523Y-6167380D01*
D11*
%TO.C,D2*%
X19395000Y-18907000D02*
X15495000Y-18907000D01*
X19395000Y-18907000D02*
X19395000Y-16907000D01*
X19395000Y-16907000D02*
X15495000Y-16907000D01*
%TO.C,R1*%
X21055064Y-20220000D02*
X20600936Y-20220000D01*
X21055064Y-21690000D02*
X20600936Y-21690000D01*
%TO.C,R4*%
X18110564Y-12219000D02*
X17656436Y-12219000D01*
X18110564Y-13689000D02*
X17656436Y-13689000D01*
%TO.C,D5*%
X10505000Y-23860000D02*
X10505000Y-21860000D01*
X10505000Y-23860000D02*
X6605000Y-23860000D01*
X10505000Y-21860000D02*
X6605000Y-21860000D01*
%TO.C,SW1*%
X20395000Y-17320000D02*
X20795000Y-17320000D01*
X26595000Y-10620000D02*
X26595000Y-17320000D01*
X26595000Y-17320000D02*
X26145000Y-17320000D01*
X22145000Y-10620000D02*
X24845000Y-10620000D01*
X20845000Y-10620000D02*
X20395000Y-10620000D01*
X24845000Y-17320000D02*
X22145000Y-17320000D01*
X26145000Y-10620000D02*
X26595000Y-10620000D01*
X20395000Y-10620000D02*
X20395000Y-17320000D01*
%TO.C,BT1*%
X325000Y-41700000D02*
X325000Y-47200000D01*
X19825000Y-55300000D02*
X26625000Y-50500000D01*
X325000Y-47200000D02*
X5125000Y-47200000D01*
X31425000Y-41700000D02*
X26625000Y-41700000D01*
X26425000Y-34950000D02*
X19725000Y-34950000D01*
X5325000Y-34950000D02*
X12025000Y-34950000D01*
X31425000Y-47200000D02*
X31425000Y-41700000D01*
X5075000Y-50500000D02*
X11925000Y-55300000D01*
X26625000Y-47200000D02*
X31425000Y-47200000D01*
X11925000Y-55300000D02*
X19825000Y-55300000D01*
X5125000Y-41700000D02*
X325000Y-41700000D01*
X19725000Y-34950000D02*
G75*
G03*
X12028615Y-34948536I-3850000J-9500000D01*
G01*
%TO.C,C1*%
X11711000Y-20632748D02*
X11711000Y-21155252D01*
X13181000Y-20632748D02*
X13181000Y-21155252D01*
%TO.C,SW2*%
X10905000Y-25860000D02*
X11355000Y-25860000D01*
X11355000Y-32560000D02*
X10905000Y-32560000D01*
X5155000Y-32560000D02*
X5555000Y-32560000D01*
X5155000Y-25860000D02*
X5155000Y-32560000D01*
X9605000Y-32560000D02*
X6905000Y-32560000D01*
X6905000Y-25860000D02*
X9605000Y-25860000D01*
X5605000Y-25860000D02*
X5155000Y-25860000D01*
X11355000Y-25860000D02*
X11355000Y-32560000D01*
%TO.C,RN1*%
X21090000Y-27842000D02*
X22090000Y-27842000D01*
X21090000Y-24482000D02*
X22090000Y-24482000D01*
%TO.C,D3*%
X10505000Y-21320000D02*
X6605000Y-21320000D01*
X10505000Y-19320000D02*
X6605000Y-19320000D01*
X10505000Y-21320000D02*
X10505000Y-19320000D01*
%TO.C,R3\u002A*%
X23267936Y-30580000D02*
X23722064Y-30580000D01*
X23267936Y-29110000D02*
X23722064Y-29110000D01*
%TO.C,SW0*%
X5605000Y-10620000D02*
X5155000Y-10620000D01*
X5155000Y-10620000D02*
X5155000Y-17320000D01*
X10905000Y-10620000D02*
X11355000Y-10620000D01*
X5155000Y-17320000D02*
X5555000Y-17320000D01*
X11355000Y-17320000D02*
X10905000Y-17320000D01*
X6905000Y-10620000D02*
X9605000Y-10620000D01*
X11355000Y-10620000D02*
X11355000Y-17320000D01*
X9605000Y-17320000D02*
X6905000Y-17320000D01*
%TO.C,J1*%
X24700000Y-22240000D02*
X27300000Y-22240000D01*
X27300000Y-19640000D02*
X29900000Y-19640000D01*
X27300000Y-22240000D02*
X27300000Y-19640000D01*
X29900000Y-19640000D02*
X29900000Y-27380000D01*
X24700000Y-20970000D02*
X24700000Y-19640000D01*
X24700000Y-27380000D02*
X29900000Y-27380000D01*
X24700000Y-19640000D02*
X26030000Y-19640000D01*
X24700000Y-22240000D02*
X24700000Y-27380000D01*
D10*
%TO.C,U1*%
X18630000Y-30690000D02*
X18330000Y-30690000D01*
X13120000Y-30690000D02*
X13325000Y-30690000D01*
X13120000Y-25190000D02*
X13420000Y-25190000D01*
X18630000Y-30690000D02*
X18630000Y-25190000D01*
X18630000Y-25190000D02*
X18330000Y-25190000D01*
X13325000Y-30690000D02*
X13325000Y-32440000D01*
X13120000Y-30690000D02*
X13120000Y-25190000D01*
D11*
%TO.C,D4*%
X19395000Y-14367000D02*
X15495000Y-14367000D01*
X19395000Y-16367000D02*
X19395000Y-14367000D01*
X19395000Y-16367000D02*
X15495000Y-16367000D01*
%TO.C,D1*%
X21175000Y-3485000D02*
X21175000Y-5405000D01*
X23860000Y-3485000D02*
X21175000Y-3485000D01*
X21175000Y-5405000D02*
X23860000Y-5405000D01*
%TO.C,R2*%
X23267936Y-33120000D02*
X23722064Y-33120000D01*
X23267936Y-31650000D02*
X23722064Y-31650000D01*
D12*
%TO.C,U2*%
X12274000Y-779000D02*
X12274000Y-5605000D01*
X13544000Y-779000D02*
X12274000Y-779000D01*
X13544000Y-5605000D02*
X13544000Y-779000D01*
X18624000Y-8145000D02*
X18624000Y-779000D01*
X14814000Y-779000D02*
X14814000Y-5605000D01*
X14814000Y-5605000D02*
X13544000Y-5605000D01*
X11004000Y-779000D02*
X7702000Y-779000D01*
X16084000Y-779000D02*
X14814000Y-779000D01*
X17354000Y-779000D02*
X17354000Y-5605000D01*
X17354000Y-5605000D02*
X16084000Y-5605000D01*
X16084000Y-5605000D02*
X16084000Y-779000D01*
X11004000Y-5605000D02*
X11004000Y-779000D01*
X12274000Y-5605000D02*
X11004000Y-5605000D01*
X18624000Y-779000D02*
X17354000Y-779000D01*
%TD*%
M02*
