M48
; DRILL file {KiCad (6.0.8)} date Mon Nov  7 13:32:57 2022
; FORMAT={-:-/ absolute / inch / decimal}
; #@! TF.CreationDate,2022-11-07T13:32:57+08:00
; #@! TF.GenerationSoftware,Kicad,Pcbnew,(6.0.8)
; #@! TF.FileFunction,Plated,1,2,PTH
FMAT,2
INCH
; #@! TA.AperFunction,Plated,PTH,ViaDrill
T1C0.0138
; #@! TA.AperFunction,Plated,PTH,ComponentDrill
T2C0.0394
%
G90
G05
T1
X0.04Y-1.92
X0.05Y-0.425
X0.05Y-0.625
X0.05Y-0.825
X0.05Y-1.025
X0.05Y-1.225
X0.05Y-1.45
X0.05Y-1.55
X0.075Y-0.525
X0.075Y-0.725
X0.075Y-0.925
X0.075Y-1.125
X0.075Y-1.325
X0.1211Y-1.75
X0.125Y-0.45
X0.125Y-0.65
X0.125Y-0.85
X0.125Y-1.05
X0.125Y-1.25
X0.14Y-1.35
X0.15Y-1.175
X0.17Y-1.91
X0.175Y-0.75
X0.175Y-0.975
X0.175Y-1.425
X0.2Y-0.85
X0.2Y-1.525
X0.23Y-2.05
X0.25Y-1.45
X0.29Y-1.04
X0.3Y-0.475
X0.3Y-0.6
X0.3Y-1.18
X0.31Y-1.3
X0.32Y-1.09
X0.32Y-1.41
X0.33Y-0.4
X0.34Y-2.16
X0.35Y-0.525
X0.35Y-1.22
X0.4Y-1.35
X0.44Y-0.9
X0.44Y-0.94
X0.48Y-0.47
X0.49Y-0.4
X0.49Y-1.0
X0.49Y-1.18
X0.49Y-1.3
X0.53Y-0.54
X0.53Y-0.63
X0.55Y-0.9
X0.55Y-1.06
X0.56Y-0.43
X0.56Y-0.76
X0.6Y-0.8
X0.61Y-0.53
X0.61Y-0.765
X0.61Y-1.03
X0.64Y-0.4
X0.65Y-0.83
X0.65Y-1.007
X0.65Y-1.12
X0.67Y-0.59
X0.69Y-0.44
X0.7Y-0.81
X0.7Y-0.86
X0.7Y-1.09
X0.72Y-1.12
X0.73Y-1.32
X0.74Y-0.41
X0.74Y-0.765
X0.74Y-0.86
X0.77Y-0.97
X0.77Y-1.01
X0.77Y-1.05
X0.77Y-1.09
X0.77Y-1.23
X0.78Y-0.9
X0.82Y-1.13
X0.83Y-1.32
X0.8463Y-0.53
X0.85Y-1.23
X0.855Y-0.88
X0.87Y-0.77
X0.87Y-2.17
X0.88Y-0.57
X0.89Y-0.5
X0.92Y-0.43
X0.93Y-0.64
X0.93Y-0.72
X0.94Y-0.825
X0.94Y-0.925
X0.94Y-0.975
X0.94Y-1.025
X0.94Y-1.12
X0.95Y-0.47
X0.95Y-1.4
X0.96Y-0.55
X0.975Y-1.5
X0.9811Y-2.102
X1.02Y-1.26
X1.02Y-2.16
X1.025Y-1.425
X1.03Y-1.17
X1.06Y-1.55
X1.08Y-1.92
X1.11Y-0.665
X1.115Y-0.415
X1.125Y-1.175
X1.1289Y-1.75
X1.13Y-1.35
X1.14Y-0.515
X1.15Y-1.275
X1.16Y-0.59
X1.18Y-1.91
X1.185Y-0.69
X1.19Y-0.44
X1.2Y-0.75
X1.2Y-0.85
X1.2Y-0.95
X1.2Y-1.05
X1.2Y-1.2
X1.2Y-1.4
X1.2Y-1.5
X1.2Y-1.6
T2
X1.0248Y-0.8256
X1.0248Y-0.9256
X1.0248Y-1.0256
X1.1248Y-0.8256
X1.1248Y-0.9256
X1.1248Y-1.0256
T0
M30
